<?xml version="1.0" encoding="UTF-8"?>
<svg width="29px" height="29px" viewBox="0 0 29 29" version="1.1" xmlns="http://www.w3.org/2000/svg" xmlns:xlink="http://www.w3.org/1999/xlink">
    <!-- Generator: Sketch 52.5 (67469) - http://www.bohemiancoding.com/sketch -->
    <title>Facebook</title>
    <desc>Created with Sketch.</desc>
    <g id="Footer" stroke="none" stroke-width="1" fill="none" fill-rule="evenodd">
        <g id="Footer-Vattenfall-com" transform="translate(-1118.000000, -121.000000)" fill="#2071B5" fill-rule="nonzero">
            <path d="M1147,125.832992 C1147,123.293728 1144.70832,121 1142.16701,121 L1122.83095,121 C1120.29168,121 1118,123.293728 1118,125.832992 L1118,145.169054 C1118,147.70218 1120.29168,150 1122.83299,150 L1132.5,150 L1132.5,139.044945 L1128.95506,139.044945 L1128.95506,134.211952 L1132.5,134.211952 L1132.5,132.328477 C1132.5,129.080223 1134.939,126.156283 1137.93763,126.156283 L1141.84372,126.156283 L1141.84372,130.989275 L1137.93763,130.989275 C1137.50998,130.989275 1137.01072,131.507973 1137.01072,132.285508 L1137.01072,134.211952 L1141.84372,134.211952 L1141.84372,139.044945 L1137.01072,139.044945 L1137.01072,150 L1142.16701,150 C1144.70832,150 1147,147.706272 1147,145.167008 L1147,125.832992 Z" id="Facebook"></path>
        </g>
    </g>
</svg>