<?xml version="1.0" encoding="UTF-8"?>
<svg width="29px" height="29px" viewBox="0 0 29 29" version="1.1" xmlns="http://www.w3.org/2000/svg" xmlns:xlink="http://www.w3.org/1999/xlink">
    <!-- Generator: Sketch 52.5 (67469) - http://www.bohemiancoding.com/sketch -->
    <title>Instagram</title>
    <desc>Created with Sketch.</desc>
    <g id="Footer" stroke="none" stroke-width="1" fill="none" fill-rule="evenodd">
        <g id="Footer-Vattenfall-com" transform="translate(-1118.000000, -182.000000)" fill="#2071B5" fill-rule="nonzero">
            <path d="M1138.99901,182 C1143.41646,182.006203 1146.99549,185.586479 1147,190.003775 L1147,202.997248 C1146.99493,207.414942 1143.41482,210.994926 1138.99697,211 L1126.00303,211 C1121.58518,210.994926 1118.00507,207.414942 1118,202.997248 L1118,190.003775 C1118.00451,185.584883 1121.58603,182.003948 1126.00508,182 L1138.99901,182 Z M1144.58333,203.08243 L1144.58126,189.919616 C1144.5784,186.883085 1142.11732,184.422042 1139.08017,184.418614 L1125.91569,184.418614 C1122.87894,184.423185 1120.41895,186.884525 1120.41667,189.920652 L1120.41667,203.08243 C1120.41952,206.118793 1122.88077,208.579539 1125.91776,208.582395 L1139.08224,208.582395 C1142.11923,208.579539 1144.58048,206.118793 1144.58333,203.08243 Z M1132.50011,189.249744 C1136.50162,189.25576 1139.74398,192.498012 1139.75,196.499383 C1139.75,199.431588 1137.98362,202.075069 1135.27452,203.197175 C1132.56542,204.319281 1129.44711,203.699033 1127.37366,201.625651 C1125.3002,199.552269 1124.67993,196.43407 1125.80208,193.725066 C1126.92422,191.016062 1129.5678,189.249744 1132.50011,189.249744 Z M1132.50102,201.400176 C1135.20573,201.396794 1137.39748,199.20512 1137.40086,196.500512 C1137.40086,193.794501 1135.20713,191.600847 1132.50102,191.600847 C1129.79492,191.600847 1127.60119,193.794501 1127.60119,196.500512 C1127.60119,199.206522 1129.79492,201.400176 1132.50102,201.400176 Z M1140.15503,186.833164 C1140.68783,186.835044 1141.19844,187.046745 1141.57626,187.422411 C1142.25605,188.101653 1142.36116,189.166568 1141.82728,189.965597 C1141.2934,190.764627 1140.2693,191.075094 1139.38159,190.707042 C1138.49387,190.338991 1137.98991,189.394991 1138.17806,188.45262 C1138.36621,187.510249 1139.19403,186.83213 1140.15503,186.833164 Z" id="Instagram"></path>
        </g>
    </g>
</svg>