<?xml version="1.0" encoding="UTF-8"?>
<svg width="29px" height="29px" viewBox="0 0 29 29" version="1.1" xmlns="http://www.w3.org/2000/svg" xmlns:xlink="http://www.w3.org/1999/xlink">
    <!-- Generator: Sketch 52.5 (67469) - http://www.bohemiancoding.com/sketch -->
    <title>LinkedIn</title>
    <desc>Created with Sketch.</desc>
    <g id="Footer" stroke="none" stroke-width="1" fill="none" fill-rule="evenodd">
        <g id="Footer-Vattenfall-com" transform="translate(-1183.000000, -121.000000)" fill="#2071B5" fill-rule="nonzero">
            <path d="M1210.40453,122.595468 C1209.39891,121.556615 1208.00874,120.979443 1206.56305,121.00056 L1188.43695,121.00056 C1186.99126,120.979443 1185.60109,121.556615 1184.59547,122.595468 C1183.55661,123.601085 1182.97944,124.991259 1183.00056,126.436955 L1183.00056,144.563045 C1182.97944,146.008741 1183.55661,147.398915 1184.59547,148.404532 C1185.60109,149.443385 1186.99126,150.020557 1188.43695,149.99944 L1206.56305,149.99944 C1209.56338,149.994372 1211.99437,147.563381 1211.99944,144.563045 L1211.99944,126.436955 C1212.02056,124.991259 1211.44339,123.601085 1210.40453,122.595468 Z M1191.28571,145.857143 L1187.14286,145.857143 L1187.14286,132.392857 L1191.28571,132.392857 L1191.28571,145.857143 Z M1191.60015,129.725716 C1191.12105,130.12348 1190.4916,130.322051 1189.7118,130.321427 L1189.69345,130.321427 C1188.93596,130.321427 1188.32161,130.122857 1187.85042,129.725716 C1187.38524,129.34182 1187.12859,128.805611 1187.14364,128.249064 C1187.1265,127.686394 1187.39183,127.144947 1187.87092,126.76493 C1188.35578,126.374024 1188.98307,126.178571 1189.7528,126.178571 C1190.52253,126.178571 1191.13975,126.374024 1191.60447,126.76493 C1192.06806,127.153538 1192.32711,127.690125 1192.32096,128.249064 C1192.33403,128.80774 1192.07188,129.344789 1191.60015,129.725716 Z M1207.85714,145.854059 L1203.43848,145.854059 L1203.43848,138.81563 C1203.43848,136.828534 1202.69927,135.834986 1201.22086,135.834986 C1200.70683,135.818946 1200.20386,135.985111 1199.8022,136.303667 C1199.42629,136.604811 1199.1309,136.993095 1198.94209,137.434256 C1198.85194,137.663457 1198.80738,138.017023 1198.80738,138.498037 L1198.80738,145.857143 L1194.39286,145.857143 C1194.43154,137.914927 1194.43154,133.526872 1194.39286,132.692977 L1198.81049,132.692977 L1198.81049,134.551254 C1199.73968,133.112323 1201.0592,132.392857 1202.76905,132.392857 C1204.29997,132.392857 1205.53071,132.892029 1206.46128,133.890374 C1207.39186,134.888718 1207.85714,136.361909 1207.85714,138.309948 L1207.85714,145.854059 Z" id="LinkedIn"></path>
        </g>
    </g>
</svg>