<?xml version="1.0" encoding="UTF-8"?>
<svg width="29px" height="29px" viewBox="0 0 29 29" version="1.1" xmlns="http://www.w3.org/2000/svg" xmlns:xlink="http://www.w3.org/1999/xlink">
    <!-- Generator: Sketch 52.5 (67469) - http://www.bohemiancoding.com/sketch -->
    <title>SlideShare</title>
    <desc>Created with Sketch.</desc>
    <g id="Footer" stroke="none" stroke-width="1" fill="none" fill-rule="evenodd">
        <g id="Footer-Vattenfall-com" transform="translate(-1183.000000, -182.000000)" fill="#2071B5" fill-rule="nonzero">
            <path d="M1186.82072,182 L1208.22416,182 C1208.26499,182.019331 1208.30719,182.035739 1208.35043,182.049096 C1209.22748,182.241246 1209.95226,182.843456 1210.28927,183.660054 C1210.465,184.09117 1210.40491,184.758239 1210.38884,185.222222 L1210.38884,195.694444 C1210.48956,195.624524 1211.18423,195.680908 1211.36617,195.63433 C1211.70219,195.571937 1211.9495,195.772412 1211.99228,196.105855 C1212.03506,196.439298 1211.89523,196.699097 1211.69071,196.930256 C1211.0512,197.643427 1210.32629,198.278415 1209.53168,198.82147 C1208.47768,199.550163 1207.34786,200.167308 1206.16114,200.662565 C1205.66965,200.867131 1205.67174,200.874291 1205.80009,201.378546 C1205.82096,201.461395 1205.83766,201.544245 1205.85853,201.627094 C1206.21436,203.059057 1206.37193,204.491019 1206.14549,205.961849 C1205.97018,207.102305 1205.5653,208.146615 1204.82649,209.05898 C1203.93638,210.156477 1202.79165,210.812111 1201.37039,210.971673 C1200.57205,211.076773 1199.76236,210.887203 1199.09866,210.439801 C1198.32229,209.913043 1197.94245,209.146943 1197.93098,208.229465 C1197.90802,206.454854 1197.91115,204.680243 1197.90384,202.905632 L1197.90384,202.620262 L1197.09512,202.415696 L1197.09512,202.722545 C1197.08782,204.56364 1197.08469,206.39553 1197.07008,208.232533 C1197.07373,208.872242 1196.84262,209.491916 1196.41893,209.978505 C1195.83248,210.65255 1195.04463,210.962468 1194.16495,210.97781 C1192.40872,211.008495 1191.04902,210.219893 1190.0243,208.868734 C1189.18218,207.758963 1188.83678,206.467128 1188.76478,205.099603 C1188.69278,203.732079 1188.90252,202.423879 1189.27506,201.123861 C1189.32827,200.938729 1189.29906,200.858948 1189.11018,200.781213 C1187.9627,200.313277 1186.864,199.737821 1185.82938,199.062858 C1184.89263,198.463014 1184.04403,197.740327 1183.30722,196.914914 C1183.16532,196.741124 1183.0667,196.5373 1183.01921,196.319627 C1182.90442,195.835828 1183.32155,195.543066 1183.80469,195.694444 C1183.95031,195.752404 1184.48297,195.623869 1184.61028,195.694444 C1184.61028,195.560454 1184.58448,184.615743 1184.61028,184.416667 C1184.7428,183.56874 1185.04466,182.855086 1185.8106,182.407087 C1186.11531,182.228091 1186.47949,182.133991 1186.82072,182 Z M1197.79239,200.116526 C1197.82196,199.969239 1197.83522,199.901732 1197.84848,199.834225 C1197.96167,199.234847 1198.32574,198.840034 1198.9315,198.764345 C1199.38917,198.712188 1199.85048,198.699868 1200.31027,198.727523 C1202.03271,198.815486 1203.74088,198.737751 1205.42151,198.31839 C1206.48079,198.049197 1207.50691,197.662573 1208.4809,197.16566 C1208.72871,197.041898 1208.77868,196.904839 1208.77766,196.654245 C1208.77155,193.234923 1208.77766,189.815601 1208.76849,186.396278 C1208.77552,185.97967 1208.74136,185.563388 1208.66651,185.153539 C1208.5064,184.356755 1208.18822,183.876024 1207.25102,183.694983 C1206.87189,183.632708 1206.48784,183.605658 1206.10375,183.61418 C1200.39288,183.610088 1194.682,183.610088 1188.97113,183.61418 C1188.61719,183.607509 1188.26316,183.6198 1187.91053,183.651001 C1187.03555,183.747148 1186.56542,184.043768 1186.34514,184.896809 C1186.2793,185.150365 1186.24505,185.411129 1186.24316,185.673137 C1186.23161,189.423516 1186.22481,193.173894 1186.22277,196.924272 C1186.21143,197.03153 1186.27334,197.133051 1186.3737,197.171797 C1187.61897,197.816455 1188.95442,198.268215 1190.3346,198.511705 C1191.74969,198.745564 1193.18743,198.810455 1194.61775,198.70502 C1194.93283,198.68457 1195.24882,198.682521 1195.56413,198.698883 C1196.01384,198.720682 1196.44021,198.906137 1196.76341,199.220527 C1197.07547,199.528399 1197.41812,199.798426 1197.79239,200.116526 Z M1201.62878,196.5 C1200.22108,196.41425 1199.16744,195.84628 1198.58963,194.530771 C1198.11757,193.463432 1198.24314,192.412235 1198.89081,191.448805 C1199.72825,190.205931 1201.27945,189.772136 1202.63616,190.238213 C1204.15998,190.759777 1205.07012,192.434429 1204.64526,194.077807 C1204.33464,195.280329 1203.54252,196.016772 1202.42656,196.347667 C1202.16338,196.413706 1201.89707,196.464557 1201.62878,196.5 Z M1193.57297,196.5 C1192.16528,196.41425 1191.11164,195.84628 1190.53383,194.530771 C1190.06177,193.463432 1190.18734,192.412235 1190.83501,191.448805 C1191.67245,190.205931 1193.22365,189.772136 1194.58036,190.238213 C1196.10418,190.759777 1197.01432,192.434429 1196.58946,194.077807 C1196.27884,195.280329 1195.48672,196.016772 1194.37076,196.347667 C1194.10758,196.413706 1193.84127,196.464557 1193.57297,196.5 Z" id="SlideShare"></path>
        </g>
    </g>
</svg>