<?xml version="1.0" encoding="UTF-8"?>
<svg width="27px" height="22px" viewBox="0 0 27 22" version="1.1" xmlns="http://www.w3.org/2000/svg" xmlns:xlink="http://www.w3.org/1999/xlink">
    <!-- Generator: Sketch 52.5 (67469) - http://www.bohemiancoding.com/sketch -->
    <title>Twitter</title>
    <desc>Created with Sketch.</desc>
    <g id="Footer" stroke="none" stroke-width="1" fill="none" fill-rule="evenodd">
        <g id="Footer-Vattenfall-com" transform="translate(-1118.000000, -247.000000)" fill="#2071B5" fill-rule="nonzero">
            <path d="M1118,266.565137 C1120.99566,266.806601 1123.69318,266.068899 1126.12972,264.226544 C1123.57888,264.005043 1121.87293,262.741632 1120.93089,260.349803 C1121.7508,260.496588 1122.59256,260.468401 1123.40076,260.267097 C1120.6318,259.438132 1119.16588,257.634754 1119.00776,254.793269 C1119.78692,255.13265 1120.56798,255.407387 1121.43096,255.407387 C1118.97347,253.364446 1118.42958,250.916528 1119.76025,247.992337 C1122.80258,251.561067 1126.60598,253.500388 1131.25425,253.821707 C1131.21806,253.425287 1131.16852,253.069745 1131.159,252.712301 C1131.11042,251.381395 1131.48476,250.18453 1132.31726,249.149275 C1133.7165,247.401034 1135.55772,246.736531 1137.75898,247.093024 C1138.62714,247.236107 1139.44185,247.606092 1140.12026,248.165354 C1140.26359,248.262156 1140.39583,248.374371 1140.51461,248.499982 C1140.67749,248.709125 1140.85084,248.733842 1141.0985,248.67205 C1142.08412,248.441713 1143.03432,248.080411 1143.92366,247.597818 C1144.00557,247.551236 1144.0894,247.510358 1144.17417,247.46853 C1144.20695,247.457485 1144.24078,247.44984 1144.27514,247.445714 C1143.84746,248.719582 1143.05782,249.677835 1141.97005,250.417438 C1143.01782,250.332831 1144.00557,250.030525 1145,249.672131 C1144.76187,249.981091 1144.53327,250.298607 1144.28276,250.597111 C1143.72728,251.251859 1143.10155,251.843847 1142.41678,252.362463 C1142.33167,252.442074 1142.28311,252.553108 1142.28247,252.669522 C1142.33329,254.258928 1142.14056,255.846756 1141.71096,257.378079 C1141.40398,258.48355 1140.9816,259.553819 1140.45079,260.571304 C1139.9382,261.565572 1139.32372,262.504125 1138.61719,263.371912 C1137.76577,264.420055 1136.77859,265.350644 1135.68154,266.139247 C1134.69529,266.846969 1133.62631,267.432126 1132.49824,267.881783 C1131.38215,268.321657 1130.21962,268.633568 1129.03299,268.811517 C1127.80098,268.996347 1126.55236,269.045441 1125.3096,268.957916 C1123.95762,268.884437 1122.62396,268.611822 1121.3519,268.148915 C1120.50893,267.8333 1119.69167,267.448288 1118.87536,267.073733 C1118.57497,266.919394 1118.2828,266.749634 1118,266.565137 Z" id="Twitter"></path>
        </g>
    </g>
</svg>