<?xml version="1.0" encoding="UTF-8"?>
<svg width="24px" height="29px" viewBox="0 0 24 29" version="1.1" xmlns="http://www.w3.org/2000/svg" xmlns:xlink="http://www.w3.org/1999/xlink">
    <!-- Generator: Sketch 52.5 (67469) - http://www.bohemiancoding.com/sketch -->
    <title>Youtube</title>
    <desc>Created with Sketch.</desc>
    <g id="Footer" stroke="none" stroke-width="1" fill="none" fill-rule="evenodd">
        <g id="Footer-Vattenfall-com" transform="translate(-1186.000000, -240.000000)" fill="#2071B5" fill-rule="nonzero">
            <path d="M1209.57823,254.80451 C1209.85941,256.028658 1210,257.941217 1210,260.542186 C1209.99932,263.099634 1209.85873,265.011847 1209.57823,266.278826 C1209.43804,266.905001 1209.10975,267.471877 1208.63846,267.901583 C1208.18471,268.329442 1207.60442,268.594186 1206.9872,268.654931 C1205.00119,268.884977 1202.00546,269 1198,269 C1193.99454,269 1190.99881,268.884977 1189.0128,268.654931 C1188.39305,268.593474 1187.81005,268.328967 1187.35233,267.901583 C1186.87859,267.475389 1186.55243,266.906601 1186.42177,266.278826 C1186.14059,265.054678 1186,263.142465 1186,260.542186 C1186.00068,257.984739 1186.14127,256.07218 1186.42177,254.80451 C1186.56234,254.178487 1186.89057,253.61172 1187.36154,253.181754 C1187.82149,252.751383 1188.40559,252.481544 1189.02815,252.411826 C1191.00392,252.192142 1193.99454,252.082646 1198,252.083337 C1202.00546,252.084027 1205.00119,252.193524 1206.9872,252.411826 C1208.26436,252.573379 1209.30238,253.531947 1209.57823,254.80451 Z M1192.85071,256.621851 L1192.85071,255.098497 L1187.79867,255.098497 L1187.79867,256.621851 L1189.49906,256.621851 L1189.49906,265.8295 L1191.11756,265.8295 L1191.11756,256.621851 L1192.85071,256.621851 Z M1197.223,265.8295 L1197.22198,257.834192 L1195.78058,257.834192 L1195.78058,263.951139 C1195.45709,264.404019 1195.14997,264.630459 1194.85924,264.630459 C1194.66405,264.629777 1194.55042,264.516557 1194.51834,264.290799 C1194.5013,264.102384 1194.49583,263.913102 1194.50196,263.724017 L1194.50196,257.834192 L1193.06057,257.834192 L1193.06057,264.162915 C1193.06125,264.692185 1193.10459,265.086067 1193.19058,265.344564 C1193.31957,265.743562 1193.63283,265.943061 1194.13035,265.943061 C1194.64767,265.943743 1195.19809,265.614655 1195.78161,264.955796 L1195.78161,265.8295 L1197.223,265.8295 Z M1202.72854,263.435511 L1202.72854,260.244549 C1202.72854,259.458148 1202.68009,258.924105 1202.58318,258.642419 C1202.39959,258.038806 1202.01604,257.737 1201.43252,257.737 C1200.89336,257.736318 1200.3914,258.027552 1199.92663,258.610703 L1199.92663,255.098497 L1198.48627,255.098497 L1198.48627,265.830523 L1199.92663,265.830523 L1199.92663,265.054011 C1200.41256,265.646711 1200.91452,265.943061 1201.43252,265.943061 C1202.01604,265.943061 1202.39959,265.646711 1202.58318,265.054011 C1202.68009,264.761413 1202.72854,264.221913 1202.72854,263.435511 Z M1208.20235,262.105518 L1208.20235,260.438933 C1208.20304,259.586373 1208.05699,258.960594 1207.7642,258.561596 C1207.35267,258.012547 1206.78041,257.737682 1206.04743,257.737 C1205.31445,257.736318 1204.73708,258.011183 1204.3153,258.561596 C1204.01228,258.960594 1203.86282,259.586714 1203.86282,260.438933 L1203.86282,263.239081 C1203.86282,264.091641 1204.01877,264.716738 1204.33066,265.114372 C1204.75175,265.664785 1205.33493,265.939992 1206.08019,265.939992 C1206.85753,265.939309 1207.44071,265.653531 1207.82972,265.082657 C1208.01176,264.823025 1208.12836,264.523291 1208.1696,264.208954 C1208.20059,263.896915 1208.21154,263.583212 1208.20235,263.269774 L1208.20235,263.060044 L1206.7282,263.060044 C1206.73769,263.389471 1206.72709,263.719169 1206.69647,264.047308 C1206.62003,264.435394 1206.40369,264.629436 1206.04743,264.629436 C1205.55127,264.629436 1205.30319,264.257038 1205.30319,263.512242 L1205.30319,262.105518 L1208.20235,262.105518 Z M1200.65552,259.047555 C1201.07661,259.047555 1201.28715,259.409041 1201.28715,260.132012 L1201.28715,263.547026 C1201.28715,264.269315 1201.07661,264.630459 1200.65552,264.630459 C1200.40676,264.630459 1200.16516,264.511783 1199.92663,264.275453 L1199.92663,259.403584 C1200.16516,259.166232 1200.40676,259.047555 1200.65552,259.047555 Z M1206.03208,259.047555 C1206.518,259.046873 1206.76096,259.413815 1206.76096,260.148381 L1206.76096,260.892154 L1205.30319,260.892154 L1205.30319,260.148381 C1205.30319,259.414497 1205.54615,259.047555 1206.03208,259.047555 Z M1191.91196,246.457631 C1191.75772,245.658952 1191.42808,244.514817 1190.92305,243.025224 C1190.52448,241.91485 1190.17403,240.906442 1189.87169,240 L1191.58744,240 L1192.73708,244.25598 L1193.83757,240 L1195.48985,240 L1193.53148,246.457631 L1193.53148,250.844564 L1191.91196,250.844564 L1191.91196,246.457631 Z M1197.66013,250.955055 L1197.66013,250.953009 C1196.93602,250.953691 1196.36922,250.678826 1195.95973,250.128413 C1195.6574,249.719184 1195.50623,249.083175 1195.50623,248.220384 L1195.50623,245.38852 C1195.50691,244.526412 1195.65808,243.895176 1195.95973,243.494814 C1196.37059,242.945083 1196.93738,242.670218 1197.66013,242.670218 C1198.40403,242.6709 1198.97628,242.945765 1199.3769,243.494814 C1199.67855,243.895176 1199.82938,244.526412 1199.82938,245.38852 L1199.82938,248.220384 C1199.82938,249.094769 1199.67855,249.731461 1199.3769,250.130459 C1198.97765,250.68019 1198.40539,250.955055 1197.66013,250.955055 Z M1196.964,245.096945 L1196.964,248.491498 C1196.964,249.247207 1197.19604,249.625062 1197.66013,249.625062 C1198.12421,249.625062 1198.35625,249.247207 1198.35625,248.491498 L1198.35625,245.096945 C1198.35625,244.353513 1198.12421,243.981455 1197.66013,243.980773 C1197.19604,243.980091 1196.964,244.352148 1196.964,245.096945 Z M1202.11329,250.955055 C1201.61713,250.955737 1201.29841,250.756579 1201.15714,250.357581 C1201.07115,250.098403 1201.02815,249.693949 1201.02815,249.144218 L1201.02815,242.772525 L1202.50333,242.772525 L1202.50333,248.706343 C1202.49579,248.895422 1202.50126,249.084796 1202.51971,249.273125 C1202.55247,249.510478 1202.66576,249.629154 1202.85958,249.629154 C1203.15032,249.629154 1203.45743,249.396917 1203.78092,248.932442 L1203.78092,242.76741 L1205.25508,242.76741 L1205.25508,250.844564 L1203.78092,250.844564 L1203.78092,249.952445 C1203.20901,250.620852 1202.65313,250.955055 1202.11329,250.955055 Z" id="Youtube"></path>
        </g>
    </g>
</svg>